<svg width="54" height="54" viewBox="0 0 54 54" fill="none" xmlns="http://www.w3.org/2000/svg">
<rect width="54" height="54" rx="5" fill="black"/>
<path d="M34.8848 36.2109C33.3965 36.2109 32.2949 35.7891 31.5801 34.9453C30.959 34.2188 30.6484 33.2871 30.6484 32.1504C30.6484 31.6113 30.7129 30.9844 30.8418 30.2695C30.9824 29.5547 31.1875 28.6348 31.457 27.5098C31.7266 26.3613 31.9258 25.4473 32.0547 24.7676C32.1953 24.0762 32.2656 23.4785 32.2656 22.9746C32.2656 21.7441 31.832 21.1289 30.9648 21.1289C30.3555 21.1289 29.793 21.4512 29.2773 22.0957C28.8438 22.6465 28.4688 23.4316 28.1523 24.4512L25.709 36H20.5234L23.1602 23.5723C23.2305 23.291 23.2656 22.9922 23.2656 22.6758C23.2656 22.1953 23.1895 21.8262 23.0371 21.5684C22.8379 21.252 22.5508 21.0938 22.1758 21.0938C21.4961 21.0938 20.9043 21.4219 20.4004 22.0781C19.9551 22.6406 19.5742 23.4316 19.2578 24.4512L16.8145 36H11.6289L15.4434 18H20.6289L20.2422 19.8633C20.9453 19.0781 21.7129 18.5215 22.5449 18.1934C23.2012 17.9473 23.8984 17.8242 24.6367 17.8242C25.6445 17.8242 26.4473 18.0586 27.0449 18.5273C27.7129 19.0547 28.1406 19.8516 28.3281 20.918C29.1016 19.7227 29.9922 18.8789 31 18.3867C31.7148 18.0352 32.4941 17.8594 33.3379 17.8594C34.5449 17.8594 35.5 18.1758 36.2031 18.8086C36.9531 19.5 37.3281 20.5371 37.3281 21.9199C37.3281 22.7051 37.1816 23.7891 36.8887 25.1719C36.7715 25.7461 36.6309 26.3262 36.4668 26.9121C36.1738 28.0371 35.9336 29.0742 35.7461 30.0234C35.6523 30.5156 35.6055 30.9141 35.6055 31.2188C35.6055 31.6992 35.7109 32.0742 35.9219 32.3438C36.1445 32.6016 36.5195 32.7305 37.0469 32.7305C37.7617 32.7305 38.3652 32.4375 38.8574 31.8516C39.2324 31.4062 39.6367 30.6387 40.0703 29.5488H41.582C40.6914 32.1855 39.5664 34.0312 38.207 35.0859C37.2461 35.8359 36.1387 36.2109 34.8848 36.2109Z" fill="white"/>
</svg>
